<svg xmlns="http://www.w3.org/2000/svg" width="186" height="40" fill="none"><path fill="#698DE9" d="M73.828 37v-3.657c-.166.366-.587.898-1.266 1.594-.66.697-1.54 1.33-2.64 1.898-1.1.55-2.383.825-3.85.825-2.2 0-4.125-.532-5.775-1.595-1.65-1.082-2.933-2.52-3.85-4.317-.916-1.816-1.375-3.823-1.375-6.023 0-2.2.459-4.198 1.375-5.995.917-1.815 2.2-3.263 3.85-4.345 1.65-1.082 3.576-1.623 5.776-1.623 1.411 0 2.649.23 3.712.688 1.063.44 1.925.972 2.585 1.595.66.605 1.118 1.164 1.375 1.677v-3.3h8.305V37h-8.222zm-10.56-11.275c0 1.027.238 1.952.715 2.777A5.23 5.23 0 0 0 65.88 30.4a5.306 5.306 0 0 0 2.668.688c1.008 0 1.897-.23 2.667-.688a4.885 4.885 0 0 0 1.815-1.897c.458-.826.688-1.751.688-2.778 0-1.027-.23-1.943-.688-2.75a4.837 4.837 0 0 0-1.815-1.925c-.77-.477-1.66-.715-2.668-.715-.971 0-1.86.238-2.667.715a5.17 5.17 0 0 0-1.897 1.925c-.477.807-.715 1.723-.715 2.75zM85.43 14.422h3.85V5.155h8.277v9.267h5.06v6.875h-5.06v6.298c0 .935.138 1.696.413 2.283.275.568.78.852 1.512.852.495 0 .917-.11 1.265-.33.349-.22.56-.367.633-.44l2.86 5.94c-.128.11-.532.312-1.21.605-.66.293-1.503.56-2.53.797-1.027.239-2.173.358-3.438.358-2.255 0-4.115-.632-5.582-1.897-1.467-1.284-2.2-3.255-2.2-5.913v-8.553h-3.85v-6.875zM114.98 37h-8.36V14.422h8.36v3.493h-.137c.147-.422.504-.953 1.072-1.595.569-.66 1.366-1.247 2.393-1.76 1.027-.532 2.282-.798 3.767-.798 1.045 0 2.008.165 2.888.495.88.312 1.522.615 1.925.908l-3.245 6.793c-.257-.312-.715-.633-1.375-.963-.642-.348-1.448-.523-2.42-.523-1.118 0-2.044.285-2.778.853a5.286 5.286 0 0 0-1.595 2.063c-.33.806-.495 1.567-.495 2.282V37zm14.437 0V14.422h8.36V37h-8.36zm4.29-27.225c-1.32 0-2.438-.458-3.355-1.375-.917-.935-1.375-2.044-1.375-3.328 0-1.283.458-2.392 1.375-3.327.935-.953 2.053-1.43 3.355-1.43.862 0 1.65.22 2.365.66a4.98 4.98 0 0 1 1.733 1.705c.44.715.66 1.512.66 2.392 0 1.284-.468 2.393-1.403 3.328-.935.917-2.053 1.375-3.355 1.375zm22.067 21.313c1.045 0 1.907-.175 2.585-.523.678-.367 1.137-.66 1.375-.88l3.823 5.665c-.294.238-.798.55-1.513.935-.715.367-1.613.688-2.695.963-1.063.275-2.282.412-3.657.412-2.585 0-4.859-.486-6.82-1.457-1.962-.99-3.493-2.384-4.593-4.18-1.082-1.797-1.622-3.906-1.622-6.326 0-2.438.54-4.546 1.622-6.325 1.1-1.778 2.631-3.153 4.593-4.124 1.961-.99 4.235-1.486 6.82-1.486 1.356 0 2.566.147 3.63.44 1.081.275 1.989.596 2.722.963.733.348 1.247.65 1.54.908l-3.905 5.72c-.128-.129-.367-.312-.715-.55-.33-.239-.761-.45-1.292-.633-.532-.183-1.165-.275-1.898-.275-.898 0-1.742.23-2.53.688a5.304 5.304 0 0 0-1.87 1.897c-.477.807-.715 1.732-.715 2.777 0 1.046.238 1.98.715 2.806a5.306 5.306 0 0 0 1.87 1.897 4.952 4.952 0 0 0 2.53.688zm21.139-17.326c1.485 0 2.842.129 4.07.386 1.229.238 2.255.513 3.08.825.844.311 1.385.568 1.623.77l-2.723 4.922c-.348-.257-.999-.587-1.952-.99-.935-.403-1.98-.605-3.135-.605-.88 0-1.623.137-2.228.413-.605.256-.907.669-.907 1.237 0 .568.33 1.027.99 1.375.678.33 1.65.623 2.915.88 1.1.22 2.218.568 3.355 1.045a7.08 7.08 0 0 1 2.832 2.117c.77.917 1.155 2.145 1.155 3.686 0 1.576-.339 2.878-1.017 3.904a6.937 6.937 0 0 1-2.695 2.393 12.587 12.587 0 0 1-3.63 1.183 21.065 21.065 0 0 1-3.795.357c-1.723 0-3.227-.156-4.51-.467-1.265-.312-2.292-.67-3.08-1.073-.788-.403-1.338-.724-1.65-.962l2.695-5.5c.477.403 1.256.861 2.337 1.374a8.168 8.168 0 0 0 3.438.743c1.173 0 2.081-.174 2.722-.522.642-.349.963-.807.963-1.375 0-.459-.156-.826-.468-1.1-.311-.275-.751-.514-1.32-.715a15.565 15.565 0 0 0-2.062-.55 14.957 14.957 0 0 1-2.338-.688 9.965 9.965 0 0 1-2.337-1.265 6.487 6.487 0 0 1-1.788-2.063c-.458-.825-.687-1.824-.687-2.997 0-1.503.486-2.75 1.457-3.74.972-.99 2.228-1.733 3.768-2.228 1.54-.513 3.181-.77 4.922-.77zM40.668 7.58c2.232 0 4.2.468 5.904 1.404 1.704.912 3.036 2.328 3.996 4.248.984 1.92 1.476 4.392 1.476 7.416V38H41.28V22.304c0-2.064-.312-3.732-.936-5.004-.624-1.272-1.86-1.908-3.708-1.908-1.104 0-2.076.288-2.916.864-.84.576-1.488 1.38-1.944 2.412-.456 1.008-.684 2.22-.684 3.636V38H21.048V22.304c0-2.064-.348-3.732-1.044-5.004-.672-1.272-1.872-1.908-3.6-1.908-1.104 0-2.076.288-2.916.864-.84.552-1.488 1.344-1.944 2.376-.432 1.008-.648 2.232-.648 3.672V38H.024V8.444h10.872v4.212c.288-.744.912-1.5 1.872-2.268.984-.792 2.196-1.452 3.636-1.98a12.663 12.663 0 0 1 4.572-.828c1.752 0 3.216.264 4.392.792 1.176.504 2.136 1.188 2.88 2.052a11.1 11.1 0 0 1 1.836 2.808c.336-.864.996-1.728 1.98-2.592 1.008-.888 2.256-1.62 3.744-2.196 1.512-.576 3.132-.864 4.86-.864z"/><rect width="11" height="25" x="10" y="15" fill="#F0F0F0" rx="5"/><rect width="9" height="14" x="10" y="15" fill="#000" rx="4.5"/><rect width="11" height="25" x="31" y="15" fill="#F0F0F0" rx="5"/><rect width="9" height="14" x="31" y="15" fill="#000" rx="4.5"/></svg>